# xmcd
#
# Track frame offsets:
#	187
#	22317
#	39460
#	60822
#	90725
#	107547
#	125432
#	147535
#	165097
#	183960
#
# Disc length: 2763 seconds
#
# Revision: 0
# Processed by: cddbd v1.5.1PL0 Copyright (c) Steve Scherf et al.
# Submitted via: EasyCDDAExtractor 8.1.4.1
#
DISCID=7a0ac90a
DTITLE=Various Artist - Con duong tinh ta di
DYEAR=1900
DGENRE=
TTITLE0=Don Ho - Ngu di em
TTITLE1=Ngoc Lan - Don Ho - Biet dau nguon coi
TTITLE2=Don Ho - Chieu nay khong co em
TTITLE3=Ngoc Lan - Tha nhu giot mua
TTITLE4=Don Ho - Loi tinh buon
TTITLE5=Don Ho - Em den tham anh dem 30
TTITLE6=Ngoc Lan - Don Ho - Con duong tinh ta di
TTITLE7=Don Ho - Goi ten bon mua
TTITLE8=Ngoc Lan - Mua thu cho em
TTITLE9=Trung Tam Giang Ngoc - Xin hay quen toi
EXTD=
EXTT0=
EXTT1=
EXTT2=
EXTT3=
EXTT4=
EXTT5=
EXTT6=
EXTT7=
EXTT8=
EXTT9=
PLAYORDER=
